<svg xmlns="http://www.w3.org/2000/svg" xmlns:xlink="http://www.w3.org/1999/xlink" width="500" zoomAndPan="magnify" viewBox="0 0 375 119.999999" height="160" preserveAspectRatio="xMidYMid meet" version="1.0"><defs><filter x="0%" y="0%" width="100%" height="100%" id="be05273ef3"><feColorMatrix values="0 0 0 0 1 0 0 0 0 1 0 0 0 0 1 0 0 0 1 0" color-interpolation-filters="sRGB"/></filter><g/><clipPath id="4d33b72dcb"><path d="M 0 0 L 375 0 L 375 120 L 0 120 Z M 0 0 " clip-rule="nonzero"/></clipPath><linearGradient x1="-18.857489" gradientTransform="matrix(0.749623, 0, 0, 0.74908, 14.136007, 25.916873)" y1="45.5" x2="481.39403" gradientUnits="userSpaceOnUse" y2="45.5" id="16dbe1f528"><stop stop-opacity="1" stop-color="rgb(0%, 0%, 0%)" offset="0"/><stop stop-opacity="1" stop-color="rgb(0%, 0%, 0%)" offset="0.03125"/><stop stop-opacity="1" stop-color="rgb(0.0167847%, 0.0167847%, 0.0671387%)" offset="0.0390625"/><stop stop-opacity="1" stop-color="rgb(0.138855%, 0.132751%, 0.537109%)" offset="0.0429687"/><stop stop-opacity="1" stop-color="rgb(0.242615%, 0.233459%, 0.939941%)" offset="0.046875"/><stop stop-opacity="1" stop-color="rgb(0.346375%, 0.332642%, 1.341248%)" offset="0.0507812"/><stop stop-opacity="1" stop-color="rgb(0.450134%, 0.43335%, 1.74408%)" offset="0.0546875"/><stop stop-opacity="1" stop-color="rgb(0.553894%, 0.532532%, 2.145386%)" offset="0.0585938"/><stop stop-opacity="1" stop-color="rgb(0.657654%, 0.63324%, 2.548218%)" offset="0.0625"/><stop stop-opacity="1" stop-color="rgb(0.761414%, 0.732422%, 2.949524%)" offset="0.0664062"/><stop stop-opacity="1" stop-color="rgb(0.865173%, 0.83313%, 3.35083%)" offset="0.0703125"/><stop stop-opacity="1" stop-color="rgb(0.968933%, 0.932312%, 3.752136%)" offset="0.0742187"/><stop stop-opacity="1" stop-color="rgb(1.074219%, 1.03302%, 4.154968%)" offset="0.078125"/><stop stop-opacity="1" stop-color="rgb(1.177979%, 1.132202%, 4.556274%)" offset="0.0820312"/><stop stop-opacity="1" stop-color="rgb(1.281738%, 1.23291%, 4.959106%)" offset="0.0859375"/><stop stop-opacity="1" stop-color="rgb(1.385498%, 1.332092%, 5.360413%)" offset="0.0898437"/><stop stop-opacity="1" stop-color="rgb(1.489258%, 1.4328%, 5.763245%)" offset="0.09375"/><stop stop-opacity="1" stop-color="rgb(1.593018%, 1.531982%, 6.164551%)" offset="0.0976562"/><stop stop-opacity="1" stop-color="rgb(1.696777%, 1.63269%, 6.565857%)" offset="0.101562"/><stop stop-opacity="1" stop-color="rgb(1.800537%, 1.731873%, 6.967163%)" offset="0.105469"/><stop stop-opacity="1" stop-color="rgb(1.904297%, 1.832581%, 7.369995%)" offset="0.109375"/><stop stop-opacity="1" stop-color="rgb(2.008057%, 1.931763%, 7.771301%)" offset="0.113281"/><stop stop-opacity="1" stop-color="rgb(2.111816%, 2.032471%, 8.174133%)" offset="0.117188"/><stop stop-opacity="1" stop-color="rgb(2.215576%, 2.131653%, 8.575439%)" offset="0.121094"/><stop stop-opacity="1" stop-color="rgb(2.319336%, 2.232361%, 8.978271%)" offset="0.125"/><stop stop-opacity="1" stop-color="rgb(2.423096%, 2.331543%, 9.379578%)" offset="0.128906"/><stop stop-opacity="1" stop-color="rgb(2.528381%, 2.432251%, 9.780884%)" offset="0.132812"/><stop stop-opacity="1" stop-color="rgb(2.632141%, 2.531433%, 10.18219%)" offset="0.136719"/><stop stop-opacity="1" stop-color="rgb(2.735901%, 2.632141%, 10.585022%)" offset="0.140625"/><stop stop-opacity="1" stop-color="rgb(2.839661%, 2.731323%, 10.986328%)" offset="0.144531"/><stop stop-opacity="1" stop-color="rgb(2.94342%, 2.832031%, 11.38916%)" offset="0.148438"/><stop stop-opacity="1" stop-color="rgb(3.04718%, 2.932739%, 11.790466%)" offset="0.152344"/><stop stop-opacity="1" stop-color="rgb(3.15094%, 3.033447%, 12.191772%)" offset="0.15625"/><stop stop-opacity="1" stop-color="rgb(3.2547%, 3.132629%, 12.593079%)" offset="0.160156"/><stop stop-opacity="1" stop-color="rgb(3.358459%, 3.233337%, 12.995911%)" offset="0.164062"/><stop stop-opacity="1" stop-color="rgb(3.462219%, 3.33252%, 13.397217%)" offset="0.167969"/><stop stop-opacity="1" stop-color="rgb(3.565979%, 3.433228%, 13.800049%)" offset="0.171875"/><stop stop-opacity="1" stop-color="rgb(3.669739%, 3.53241%, 14.201355%)" offset="0.175781"/><stop stop-opacity="1" stop-color="rgb(3.775024%, 3.633118%, 14.604187%)" offset="0.179687"/><stop stop-opacity="1" stop-color="rgb(3.878784%, 3.7323%, 15.005493%)" offset="0.183594"/><stop stop-opacity="1" stop-color="rgb(3.982544%, 3.833008%, 15.406799%)" offset="0.1875"/><stop stop-opacity="1" stop-color="rgb(4.086304%, 3.93219%, 15.808105%)" offset="0.191406"/><stop stop-opacity="1" stop-color="rgb(4.190063%, 4.032898%, 16.210938%)" offset="0.195312"/><stop stop-opacity="1" stop-color="rgb(4.293823%, 4.13208%, 16.612244%)" offset="0.199219"/><stop stop-opacity="1" stop-color="rgb(4.397583%, 4.232788%, 17.015076%)" offset="0.203125"/><stop stop-opacity="1" stop-color="rgb(4.501343%, 4.33197%, 17.416382%)" offset="0.207031"/><stop stop-opacity="1" stop-color="rgb(4.605103%, 4.432678%, 17.819214%)" offset="0.210938"/><stop stop-opacity="1" stop-color="rgb(4.708862%, 4.53186%, 18.22052%)" offset="0.214844"/><stop stop-opacity="1" stop-color="rgb(4.812622%, 4.632568%, 18.621826%)" offset="0.21875"/><stop stop-opacity="1" stop-color="rgb(4.916382%, 4.73175%, 19.023132%)" offset="0.222656"/><stop stop-opacity="1" stop-color="rgb(5.020142%, 4.832458%, 19.425964%)" offset="0.226562"/><stop stop-opacity="1" stop-color="rgb(5.123901%, 4.931641%, 19.827271%)" offset="0.230469"/><stop stop-opacity="1" stop-color="rgb(5.229187%, 5.032349%, 20.230103%)" offset="0.234375"/><stop stop-opacity="1" stop-color="rgb(5.332947%, 5.131531%, 20.631409%)" offset="0.238281"/><stop stop-opacity="1" stop-color="rgb(5.436707%, 5.232239%, 21.032715%)" offset="0.242187"/><stop stop-opacity="1" stop-color="rgb(5.540466%, 5.331421%, 21.434021%)" offset="0.246094"/><stop stop-opacity="1" stop-color="rgb(5.644226%, 5.432129%, 21.836853%)" offset="0.25"/><stop stop-opacity="1" stop-color="rgb(5.747986%, 5.531311%, 22.238159%)" offset="0.253906"/><stop stop-opacity="1" stop-color="rgb(5.851746%, 5.632019%, 22.640991%)" offset="0.257812"/><stop stop-opacity="1" stop-color="rgb(5.955505%, 5.731201%, 23.042297%)" offset="0.261719"/><stop stop-opacity="1" stop-color="rgb(6.059265%, 5.831909%, 23.445129%)" offset="0.265625"/><stop stop-opacity="1" stop-color="rgb(6.163025%, 5.931091%, 23.846436%)" offset="0.269531"/><stop stop-opacity="1" stop-color="rgb(6.266785%, 6.031799%, 24.247742%)" offset="0.273438"/><stop stop-opacity="1" stop-color="rgb(6.370544%, 6.130981%, 24.649048%)" offset="0.277344"/><stop stop-opacity="1" stop-color="rgb(6.47583%, 6.231689%, 25.05188%)" offset="0.28125"/><stop stop-opacity="1" stop-color="rgb(6.57959%, 6.330872%, 25.453186%)" offset="0.285156"/><stop stop-opacity="1" stop-color="rgb(6.68335%, 6.43158%, 25.856018%)" offset="0.289062"/><stop stop-opacity="1" stop-color="rgb(6.787109%, 6.530762%, 26.257324%)" offset="0.292969"/><stop stop-opacity="1" stop-color="rgb(6.890869%, 6.63147%, 26.660156%)" offset="0.296875"/><stop stop-opacity="1" stop-color="rgb(6.994629%, 6.730652%, 27.061462%)" offset="0.300781"/><stop stop-opacity="1" stop-color="rgb(7.098389%, 6.83136%, 27.462769%)" offset="0.304688"/><stop stop-opacity="1" stop-color="rgb(7.202148%, 6.930542%, 27.864075%)" offset="0.308594"/><stop stop-opacity="1" stop-color="rgb(7.305908%, 7.03125%, 28.266907%)" offset="0.3125"/><stop stop-opacity="1" stop-color="rgb(7.409668%, 7.130432%, 28.668213%)" offset="0.316406"/><stop stop-opacity="1" stop-color="rgb(7.513428%, 7.23114%, 29.071045%)" offset="0.320312"/><stop stop-opacity="1" stop-color="rgb(7.617188%, 7.331848%, 29.472351%)" offset="0.324219"/><stop stop-opacity="1" stop-color="rgb(7.720947%, 7.432556%, 29.873657%)" offset="0.328125"/><stop stop-opacity="1" stop-color="rgb(7.824707%, 7.531738%, 30.274963%)" offset="0.332031"/><stop stop-opacity="1" stop-color="rgb(7.929993%, 7.632446%, 30.677795%)" offset="0.335938"/><stop stop-opacity="1" stop-color="rgb(8.033752%, 7.731628%, 31.079102%)" offset="0.339844"/><stop stop-opacity="1" stop-color="rgb(8.137512%, 7.832336%, 31.481934%)" offset="0.34375"/><stop stop-opacity="1" stop-color="rgb(8.241272%, 7.931519%, 31.88324%)" offset="0.347656"/><stop stop-opacity="1" stop-color="rgb(8.345032%, 8.032227%, 32.286072%)" offset="0.351562"/><stop stop-opacity="1" stop-color="rgb(8.448792%, 8.131409%, 32.687378%)" offset="0.355469"/><stop stop-opacity="1" stop-color="rgb(8.552551%, 8.232117%, 33.088684%)" offset="0.359375"/><stop stop-opacity="1" stop-color="rgb(8.656311%, 8.331299%, 33.48999%)" offset="0.363281"/><stop stop-opacity="1" stop-color="rgb(8.760071%, 8.432007%, 33.892822%)" offset="0.367187"/><stop stop-opacity="1" stop-color="rgb(8.863831%, 8.531189%, 34.294128%)" offset="0.371094"/><stop stop-opacity="1" stop-color="rgb(8.96759%, 8.631897%, 34.69696%)" offset="0.375"/><stop stop-opacity="1" stop-color="rgb(9.07135%, 8.731079%, 35.098267%)" offset="0.378906"/><stop stop-opacity="1" stop-color="rgb(9.176636%, 8.831787%, 35.501099%)" offset="0.382812"/><stop stop-opacity="1" stop-color="rgb(9.280396%, 8.930969%, 35.902405%)" offset="0.386719"/><stop stop-opacity="1" stop-color="rgb(9.384155%, 9.031677%, 36.303711%)" offset="0.390625"/><stop stop-opacity="1" stop-color="rgb(9.487915%, 9.130859%, 36.705017%)" offset="0.394531"/><stop stop-opacity="1" stop-color="rgb(9.591675%, 9.231567%, 37.107849%)" offset="0.398437"/><stop stop-opacity="1" stop-color="rgb(9.695435%, 9.33075%, 37.509155%)" offset="0.402344"/><stop stop-opacity="1" stop-color="rgb(9.799194%, 9.431458%, 37.911987%)" offset="0.40625"/><stop stop-opacity="1" stop-color="rgb(9.902954%, 9.53064%, 38.313293%)" offset="0.410156"/><stop stop-opacity="1" stop-color="rgb(10.006714%, 9.631348%, 38.716125%)" offset="0.414062"/><stop stop-opacity="1" stop-color="rgb(10.110474%, 9.73053%, 39.117432%)" offset="0.417969"/><stop stop-opacity="1" stop-color="rgb(10.214233%, 9.831238%, 39.518738%)" offset="0.421875"/><stop stop-opacity="1" stop-color="rgb(10.317993%, 9.93042%, 39.920044%)" offset="0.425781"/><stop stop-opacity="1" stop-color="rgb(10.421753%, 10.031128%, 40.322876%)" offset="0.429687"/><stop stop-opacity="1" stop-color="rgb(10.525513%, 10.13031%, 40.724182%)" offset="0.433594"/><stop stop-opacity="1" stop-color="rgb(10.630798%, 10.231018%, 41.127014%)" offset="0.4375"/><stop stop-opacity="1" stop-color="rgb(10.734558%, 10.3302%, 41.52832%)" offset="0.441406"/><stop stop-opacity="1" stop-color="rgb(10.838318%, 10.430908%, 41.929626%)" offset="0.445312"/><stop stop-opacity="1" stop-color="rgb(10.942078%, 10.53009%, 42.330933%)" offset="0.449219"/><stop stop-opacity="1" stop-color="rgb(11.045837%, 10.630798%, 42.733765%)" offset="0.453125"/><stop stop-opacity="1" stop-color="rgb(11.149597%, 10.72998%, 43.135071%)" offset="0.457031"/><stop stop-opacity="1" stop-color="rgb(11.253357%, 10.830688%, 43.537903%)" offset="0.460937"/><stop stop-opacity="1" stop-color="rgb(11.357117%, 10.929871%, 43.939209%)" offset="0.464844"/><stop stop-opacity="1" stop-color="rgb(11.460876%, 11.030579%, 44.342041%)" offset="0.46875"/><stop stop-opacity="1" stop-color="rgb(11.564636%, 11.129761%, 44.743347%)" offset="0.472656"/><stop stop-opacity="1" stop-color="rgb(11.668396%, 11.230469%, 45.144653%)" offset="0.476562"/><stop stop-opacity="1" stop-color="rgb(11.772156%, 11.329651%, 45.545959%)" offset="0.480469"/><stop stop-opacity="1" stop-color="rgb(11.877441%, 11.430359%, 45.948792%)" offset="0.484375"/><stop stop-opacity="1" stop-color="rgb(11.981201%, 11.529541%, 46.350098%)" offset="0.488281"/><stop stop-opacity="1" stop-color="rgb(12.084961%, 11.630249%, 46.75293%)" offset="0.492188"/><stop stop-opacity="1" stop-color="rgb(12.188721%, 11.729431%, 47.154236%)" offset="0.496094"/><stop stop-opacity="1" stop-color="rgb(12.29248%, 11.830139%, 47.557068%)" offset="0.5"/><stop stop-opacity="1" stop-color="rgb(12.39624%, 11.930847%, 47.958374%)" offset="0.503906"/><stop stop-opacity="1" stop-color="rgb(12.5%, 12.031555%, 48.35968%)" offset="0.507812"/><stop stop-opacity="1" stop-color="rgb(12.60376%, 12.130737%, 48.760986%)" offset="0.511719"/><stop stop-opacity="1" stop-color="rgb(12.70752%, 12.231445%, 49.163818%)" offset="0.515625"/><stop stop-opacity="1" stop-color="rgb(12.811279%, 12.330627%, 49.565125%)" offset="0.519531"/><stop stop-opacity="1" stop-color="rgb(12.915039%, 12.431335%, 49.967957%)" offset="0.523437"/><stop stop-opacity="1" stop-color="rgb(13.018799%, 12.530518%, 50.369263%)" offset="0.527344"/><stop stop-opacity="1" stop-color="rgb(13.122559%, 12.631226%, 50.770569%)" offset="0.53125"/><stop stop-opacity="1" stop-color="rgb(13.226318%, 12.730408%, 51.171875%)" offset="0.535156"/><stop stop-opacity="1" stop-color="rgb(13.331604%, 12.831116%, 51.574707%)" offset="0.539062"/><stop stop-opacity="1" stop-color="rgb(13.435364%, 12.930298%, 51.976013%)" offset="0.542969"/><stop stop-opacity="1" stop-color="rgb(13.539124%, 13.031006%, 52.378845%)" offset="0.546875"/><stop stop-opacity="1" stop-color="rgb(13.642883%, 13.130188%, 52.780151%)" offset="0.550781"/><stop stop-opacity="1" stop-color="rgb(13.746643%, 13.230896%, 53.182983%)" offset="0.554687"/><stop stop-opacity="1" stop-color="rgb(13.850403%, 13.330078%, 53.58429%)" offset="0.558594"/><stop stop-opacity="1" stop-color="rgb(13.954163%, 13.430786%, 53.985596%)" offset="0.5625"/><stop stop-opacity="1" stop-color="rgb(14.057922%, 13.529968%, 54.386902%)" offset="0.566406"/><stop stop-opacity="1" stop-color="rgb(14.161682%, 13.630676%, 54.789734%)" offset="0.570312"/><stop stop-opacity="1" stop-color="rgb(14.265442%, 13.729858%, 55.19104%)" offset="0.574219"/><stop stop-opacity="1" stop-color="rgb(14.369202%, 13.830566%, 55.593872%)" offset="0.578125"/><stop stop-opacity="1" stop-color="rgb(14.472961%, 13.929749%, 55.995178%)" offset="0.582031"/><stop stop-opacity="1" stop-color="rgb(14.578247%, 14.030457%, 56.39801%)" offset="0.585937"/><stop stop-opacity="1" stop-color="rgb(14.682007%, 14.129639%, 56.799316%)" offset="0.589844"/><stop stop-opacity="1" stop-color="rgb(14.785767%, 14.230347%, 57.200623%)" offset="0.59375"/><stop stop-opacity="1" stop-color="rgb(14.889526%, 14.329529%, 57.601929%)" offset="0.597656"/><stop stop-opacity="1" stop-color="rgb(14.993286%, 14.430237%, 58.004761%)" offset="0.601562"/><stop stop-opacity="1" stop-color="rgb(15.097046%, 14.529419%, 58.406067%)" offset="0.605469"/><stop stop-opacity="1" stop-color="rgb(15.200806%, 14.630127%, 58.808899%)" offset="0.609375"/><stop stop-opacity="1" stop-color="rgb(15.304565%, 14.729309%, 59.210205%)" offset="0.613281"/><stop stop-opacity="1" stop-color="rgb(15.408325%, 14.830017%, 59.611511%)" offset="0.617187"/><stop stop-opacity="1" stop-color="rgb(15.512085%, 14.929199%, 60.012817%)" offset="0.621094"/><stop stop-opacity="1" stop-color="rgb(15.615845%, 15.029907%, 60.415649%)" offset="0.625"/><stop stop-opacity="1" stop-color="rgb(15.719604%, 15.129089%, 60.816956%)" offset="0.628906"/><stop stop-opacity="1" stop-color="rgb(15.823364%, 15.229797%, 61.219788%)" offset="0.632812"/><stop stop-opacity="1" stop-color="rgb(15.927124%, 15.328979%, 61.621094%)" offset="0.636719"/><stop stop-opacity="1" stop-color="rgb(16.03241%, 15.429688%, 62.023926%)" offset="0.640625"/><stop stop-opacity="1" stop-color="rgb(16.136169%, 15.52887%, 62.425232%)" offset="0.644531"/><stop stop-opacity="1" stop-color="rgb(16.239929%, 15.629578%, 62.826538%)" offset="0.648438"/><stop stop-opacity="1" stop-color="rgb(16.343689%, 15.72876%, 63.227844%)" offset="0.652344"/><stop stop-opacity="1" stop-color="rgb(16.447449%, 15.829468%, 63.630676%)" offset="0.65625"/><stop stop-opacity="1" stop-color="rgb(16.551208%, 15.92865%, 64.031982%)" offset="0.660156"/><stop stop-opacity="1" stop-color="rgb(16.654968%, 16.029358%, 64.434814%)" offset="0.664062"/><stop stop-opacity="1" stop-color="rgb(16.758728%, 16.12854%, 64.836121%)" offset="0.667969"/><stop stop-opacity="1" stop-color="rgb(16.862488%, 16.229248%, 65.238953%)" offset="0.671875"/><stop stop-opacity="1" stop-color="rgb(16.966248%, 16.32843%, 65.640259%)" offset="0.675781"/><stop stop-opacity="1" stop-color="rgb(17.070007%, 16.429138%, 66.041565%)" offset="0.679687"/><stop stop-opacity="1" stop-color="rgb(17.173767%, 16.529846%, 66.442871%)" offset="0.683594"/><stop stop-opacity="1" stop-color="rgb(17.279053%, 16.630554%, 66.845703%)" offset="0.6875"/><stop stop-opacity="1" stop-color="rgb(17.382812%, 16.729736%, 67.247009%)" offset="0.691406"/><stop stop-opacity="1" stop-color="rgb(17.486572%, 16.830444%, 67.649841%)" offset="0.695312"/><stop stop-opacity="1" stop-color="rgb(17.590332%, 16.929626%, 68.051147%)" offset="0.699219"/><stop stop-opacity="1" stop-color="rgb(17.694092%, 17.030334%, 68.453979%)" offset="0.703125"/><stop stop-opacity="1" stop-color="rgb(17.797852%, 17.129517%, 68.855286%)" offset="0.707031"/><stop stop-opacity="1" stop-color="rgb(17.901611%, 17.230225%, 69.256592%)" offset="0.710938"/><stop stop-opacity="1" stop-color="rgb(18.005371%, 17.329407%, 69.657898%)" offset="0.714844"/><stop stop-opacity="1" stop-color="rgb(18.109131%, 17.430115%, 70.06073%)" offset="0.71875"/><stop stop-opacity="1" stop-color="rgb(18.212891%, 17.529297%, 70.462036%)" offset="0.722656"/><stop stop-opacity="1" stop-color="rgb(18.31665%, 17.630005%, 70.864868%)" offset="0.726562"/><stop stop-opacity="1" stop-color="rgb(18.42041%, 17.729187%, 71.266174%)" offset="0.730469"/><stop stop-opacity="1" stop-color="rgb(18.52417%, 17.829895%, 71.66748%)" offset="0.734375"/><stop stop-opacity="1" stop-color="rgb(18.62793%, 17.929077%, 72.068787%)" offset="0.738281"/><stop stop-opacity="1" stop-color="rgb(18.733215%, 18.029785%, 72.471619%)" offset="0.742187"/><stop stop-opacity="1" stop-color="rgb(18.836975%, 18.128967%, 72.872925%)" offset="0.746094"/><stop stop-opacity="1" stop-color="rgb(18.940735%, 18.229675%, 73.275757%)" offset="0.75"/><stop stop-opacity="1" stop-color="rgb(19.044495%, 18.328857%, 73.677063%)" offset="0.753906"/><stop stop-opacity="1" stop-color="rgb(19.148254%, 18.429565%, 74.079895%)" offset="0.757812"/><stop stop-opacity="1" stop-color="rgb(19.252014%, 18.528748%, 74.481201%)" offset="0.761719"/><stop stop-opacity="1" stop-color="rgb(19.355774%, 18.629456%, 74.882507%)" offset="0.765625"/><stop stop-opacity="1" stop-color="rgb(19.459534%, 18.728638%, 75.283813%)" offset="0.769531"/><stop stop-opacity="1" stop-color="rgb(19.563293%, 18.829346%, 75.686646%)" offset="0.773438"/><stop stop-opacity="1" stop-color="rgb(19.667053%, 18.928528%, 76.087952%)" offset="0.777344"/><stop stop-opacity="1" stop-color="rgb(19.770813%, 19.029236%, 76.490784%)" offset="0.78125"/><stop stop-opacity="1" stop-color="rgb(19.874573%, 19.128418%, 76.89209%)" offset="0.785156"/><stop stop-opacity="1" stop-color="rgb(19.979858%, 19.229126%, 77.294922%)" offset="0.789062"/><stop stop-opacity="1" stop-color="rgb(20.083618%, 19.328308%, 77.696228%)" offset="0.792969"/><stop stop-opacity="1" stop-color="rgb(20.187378%, 19.429016%, 78.097534%)" offset="0.796875"/><stop stop-opacity="1" stop-color="rgb(20.291138%, 19.528198%, 78.49884%)" offset="0.800781"/><stop stop-opacity="1" stop-color="rgb(20.394897%, 19.628906%, 78.901672%)" offset="0.804688"/><stop stop-opacity="1" stop-color="rgb(20.498657%, 19.728088%, 79.302979%)" offset="0.808594"/><stop stop-opacity="1" stop-color="rgb(20.602417%, 19.828796%, 79.705811%)" offset="0.8125"/><stop stop-opacity="1" stop-color="rgb(20.690918%, 19.914246%, 80.047607%)" offset="0.816406"/><stop stop-opacity="1" stop-color="rgb(20.779419%, 19.999695%, 80.389404%)" offset="0.820313"/><stop stop-opacity="1" stop-color="rgb(20.779419%, 19.999695%, 80.389404%)" offset="0.828125"/><stop stop-opacity="1" stop-color="rgb(20.779419%, 19.999695%, 80.389404%)" offset="0.84375"/><stop stop-opacity="1" stop-color="rgb(20.779419%, 19.999695%, 80.389404%)" offset="0.875"/><stop stop-opacity="1" stop-color="rgb(20.779419%, 19.999695%, 80.389404%)" offset="1"/></linearGradient><clipPath id="21659373a2"><rect x="0" width="375" y="0" height="120"/></clipPath><clipPath id="14b7d2b14c"><rect x="0" width="375" y="0" height="120"/></clipPath><clipPath id="afaaf6c388"><rect x="0" width="375" y="0" height="120"/></clipPath><mask id="4a86f72362"><g filter="url(#be05273ef3)"><g transform="matrix(1, 0, 0, 1, 0, 0.000000000000001943)"><g clip-path="url(#afaaf6c388)"><g transform="matrix(1, 0, 0, 1, 0, 0.000000000000001943)"><g clip-path="url(#14b7d2b14c)"><g fill="#000000" fill-opacity="1"><g transform="translate(14.050783, 75.374998)"><g><path d="M 4.390625 -35.40625 L 26.125 -35.40625 L 26.125 -28.953125 L 10.25 -28.953125 L 10.25 -21 L 23.921875 -21 L 23.921875 -14.65625 L 10.25 -14.65625 L 10.25 -5.21875 L 26.125 -5.21875 L 26.125 1.21875 L 3.171875 1.21875 L 3.171875 -35.40625 Z M 4.390625 -35.40625 "/></g></g></g><g fill="#000000" fill-opacity="1"><g transform="translate(39.681301, 75.374998)"><g><path d="M 0.046875 -25.34375 L 4.046875 -27 L 5.21875 -27.484375 L 5.65625 -26.375 L 13.1875 -8.15625 L 20.703125 -26.375 L 21.1875 -27.484375 L 22.3125 -27 L 26.078125 -25.34375 L 27.203125 -24.859375 L 26.703125 -23.734375 L 16.453125 0.484375 L 16.15625 1.21875 L 9.90625 1.21875 L 9.625 0.484375 L -0.59375 -23.734375 L -1.078125 -24.859375 Z M 0.046875 -25.34375 "/></g></g></g><g fill="#000000" fill-opacity="1"><g transform="translate(64.726031, 75.374998)"><g><path d="M 8.15625 -9.671875 C 8.507812 -8.234375 9.128906 -7.078125 10.015625 -6.203125 C 11.148438 -5.097656 12.675781 -4.546875 14.59375 -4.546875 C 15.050781 -4.546875 15.488281 -4.5625 15.90625 -4.59375 C 16.332031 -4.625 16.738281 -4.671875 17.125 -4.734375 C 17.519531 -4.796875 17.898438 -4.878906 18.265625 -4.984375 C 18.617188 -5.078125 18.972656 -5.179688 19.328125 -5.296875 C 19.691406 -5.410156 20.046875 -5.53125 20.390625 -5.65625 C 20.734375 -5.789062 21.082031 -5.941406 21.4375 -6.109375 L 22.703125 -6.6875 L 23.09375 -5.328125 L 24.125 -1.5625 L 24.421875 -0.53125 L 23.484375 -0.09375 C 22.210938 0.488281 20.796875 0.941406 19.234375 1.265625 C 18.453125 1.460938 17.628906 1.601562 16.765625 1.6875 C 15.910156 1.769531 15.007812 1.8125 14.0625 1.8125 C 12.070312 1.8125 10.265625 1.484375 8.640625 0.828125 C 7.015625 0.140625 5.632812 -0.832031 4.5 -2.09375 C 3.351562 -3.332031 2.472656 -4.863281 1.859375 -6.6875 C 1.273438 -8.445312 0.984375 -10.453125 0.984375 -12.703125 C 0.984375 -14.710938 1.273438 -16.597656 1.859375 -18.359375 C 2.179688 -19.234375 2.550781 -20.0625 2.96875 -20.84375 C 3.394531 -21.625 3.882812 -22.34375 4.4375 -23 C 5.550781 -24.300781 6.890625 -25.328125 8.453125 -26.078125 C 10.015625 -26.828125 11.753906 -27.203125 13.671875 -27.203125 C 14.328125 -27.203125 14.953125 -27.160156 15.546875 -27.078125 C 16.148438 -26.992188 16.738281 -26.878906 17.3125 -26.734375 C 17.882812 -26.585938 18.429688 -26.398438 18.953125 -26.171875 C 19.734375 -25.816406 20.4375 -25.398438 21.0625 -24.921875 C 21.695312 -24.453125 22.273438 -23.910156 22.796875 -23.296875 C 23.804688 -22.085938 24.570312 -20.703125 25.09375 -19.140625 C 25.320312 -18.359375 25.5 -17.550781 25.625 -16.71875 C 25.757812 -15.894531 25.828125 -15.054688 25.828125 -14.203125 C 25.828125 -13.984375 25.828125 -13.757812 25.828125 -13.53125 C 25.828125 -13.300781 25.816406 -13.0625 25.796875 -12.8125 C 25.785156 -12.570312 25.78125 -12.335938 25.78125 -12.109375 C 25.78125 -11.878906 25.769531 -11.660156 25.75 -11.453125 C 25.738281 -11.242188 25.71875 -11.023438 25.6875 -10.796875 L 25.59375 -9.671875 Z M 13.578125 -20.953125 C 12.015625 -20.953125 10.742188 -20.429688 9.765625 -19.390625 C 9.378906 -18.960938 9.035156 -18.4375 8.734375 -17.8125 C 8.441406 -17.195312 8.21875 -16.484375 8.0625 -15.671875 L 19.28125 -15.671875 C 19.125 -17.234375 18.640625 -18.457031 17.828125 -19.34375 C 16.816406 -20.414062 15.398438 -20.953125 13.578125 -20.953125 Z M 13.578125 -20.953125 "/></g></g></g><g fill="#000000" fill-opacity="1"><g transform="translate(91.284288, 75.374998)"><g><path d="M 9.375 -24.359375 C 9.632812 -24.617188 9.894531 -24.847656 10.15625 -25.046875 C 10.414062 -25.242188 10.691406 -25.425781 10.984375 -25.59375 C 12.609375 -26.664062 14.515625 -27.203125 16.703125 -27.203125 C 18.296875 -27.203125 19.707031 -26.945312 20.9375 -26.4375 C 22.175781 -25.9375 23.222656 -25.179688 24.078125 -24.171875 C 25.671875 -22.210938 26.46875 -19.671875 26.46875 -16.546875 L 26.46875 1.21875 L 19.625 1.21875 L 19.625 -16.0625 C 19.625 -16.613281 19.582031 -17.117188 19.5 -17.578125 C 19.425781 -18.035156 19.316406 -18.441406 19.171875 -18.796875 C 19.023438 -19.160156 18.835938 -19.472656 18.609375 -19.734375 C 18.410156 -19.992188 18.1875 -20.210938 17.9375 -20.390625 C 17.695312 -20.566406 17.414062 -20.695312 17.09375 -20.78125 C 16.769531 -20.863281 16.394531 -20.90625 15.96875 -20.90625 C 15.382812 -20.90625 14.796875 -20.789062 14.203125 -20.5625 C 13.585938 -20.332031 12.988281 -20.003906 12.40625 -19.578125 C 11.820312 -19.117188 11.269531 -18.613281 10.75 -18.0625 C 10.550781 -17.800781 10.335938 -17.53125 10.109375 -17.25 C 9.878906 -16.976562 9.679688 -16.710938 9.515625 -16.453125 L 9.515625 1.21875 L 2.6875 1.21875 L 2.6875 -26.609375 L 9.375 -26.609375 Z M 9.375 -24.359375 "/></g></g></g><g fill="#000000" fill-opacity="1"><g transform="translate(120.185916, 75.374998)"><g><path d="M 5.90625 -33.6875 L 10.5 -33.6875 L 10.5 -25.6875 L 17.53125 -25.6875 L 17.53125 -19.4375 L 10.5 -19.4375 L 10.5 -8.40625 C 10.5 -7.582031 10.582031 -6.910156 10.75 -6.390625 C 10.90625 -5.910156 11.097656 -5.539062 11.328125 -5.28125 C 11.554688 -5.019531 11.832031 -4.835938 12.15625 -4.734375 C 12.351562 -4.671875 12.546875 -4.625 12.734375 -4.59375 C 12.929688 -4.5625 13.128906 -4.546875 13.328125 -4.546875 C 14.015625 -4.546875 14.632812 -4.640625 15.1875 -4.828125 C 15.875 -5.085938 16.507812 -5.382812 17.09375 -5.71875 L 18.359375 -6.390625 L 18.84375 -5.03125 L 20.0625 -1.515625 L 20.359375 -0.59375 L 19.53125 -0.09375 C 18.8125 0.363281 17.851562 0.785156 16.65625 1.171875 C 16.03125 1.398438 15.390625 1.5625 14.734375 1.65625 C 14.085938 1.757812 13.441406 1.8125 12.796875 1.8125 C 9.992188 1.8125 7.765625 0.878906 6.109375 -0.984375 C 5.253906 -1.921875 4.628906 -3.039062 4.234375 -4.34375 C 3.847656 -5.644531 3.65625 -7.109375 3.65625 -8.734375 L 3.65625 -19.4375 L -0.734375 -19.4375 L -0.734375 -25.6875 L 3.90625 -25.6875 L 4.6875 -32.625 L 4.828125 -33.6875 Z M 5.90625 -33.6875 "/></g></g></g><g fill="#000000" fill-opacity="1"><g transform="translate(139.570307, 75.374998)"><g><path d="M 4.390625 -34.078125 C 5.765625 -34.242188 7.238281 -34.367188 8.8125 -34.453125 C 10.394531 -34.535156 12.0625 -34.578125 13.8125 -34.578125 C 15.9375 -34.578125 17.828125 -34.316406 19.484375 -33.796875 C 21.140625 -33.273438 22.535156 -32.554688 23.671875 -31.640625 C 24.816406 -30.734375 25.679688 -29.632812 26.265625 -28.34375 C 26.859375 -27.0625 27.15625 -25.671875 27.15625 -24.171875 C 27.15625 -22.347656 26.800781 -20.726562 26.09375 -19.3125 C 25.394531 -17.894531 24.421875 -16.695312 23.171875 -15.71875 C 21.921875 -14.75 20.414062 -14.007812 18.65625 -13.5 C 16.894531 -13 14.957031 -12.75 12.84375 -12.75 C 11.476562 -12.75 10.207031 -12.796875 9.03125 -12.890625 L 9.03125 0 L 4.390625 0 Z M 13.421875 -16.609375 C 16.359375 -16.609375 18.613281 -17.25 20.1875 -18.53125 C 21.769531 -19.8125 22.5625 -21.5625 22.5625 -23.78125 C 22.5625 -25.894531 21.800781 -27.570312 20.28125 -28.8125 C 18.769531 -30.050781 16.582031 -30.671875 13.71875 -30.671875 C 12.84375 -30.671875 12.015625 -30.648438 11.234375 -30.609375 C 10.453125 -30.578125 9.71875 -30.53125 9.03125 -30.46875 L 9.03125 -16.84375 C 9.550781 -16.78125 10.175781 -16.722656 10.90625 -16.671875 C 11.644531 -16.628906 12.484375 -16.609375 13.421875 -16.609375 Z M 13.421875 -16.609375 "/></g></g></g><g fill="#000000" fill-opacity="1"><g transform="translate(167.202535, 75.374998)"><g><path d="M 2.203125 -12.546875 C 2.203125 -14.429688 2.492188 -16.195312 3.078125 -17.84375 C 3.660156 -19.488281 4.476562 -20.910156 5.53125 -22.109375 C 6.59375 -23.316406 7.863281 -24.265625 9.34375 -24.953125 C 10.832031 -25.640625 12.453125 -25.984375 14.203125 -25.984375 C 15.671875 -25.984375 17 -25.726562 18.1875 -25.21875 C 19.375 -24.71875 20.410156 -24.09375 21.296875 -23.34375 L 21.296875 -25.390625 L 25.296875 -25.390625 L 25.296875 -6.15625 C 25.296875 -4.914062 25.59375 -4.109375 26.1875 -3.734375 C 26.789062 -3.359375 27.453125 -3.171875 28.171875 -3.171875 L 27.25 0.25 C 24.125 0.25 22.234375 -1.019531 21.578125 -3.5625 C 21.191406 -3.039062 20.742188 -2.523438 20.234375 -2.015625 C 19.734375 -1.515625 19.15625 -1.066406 18.5 -0.671875 C 17.851562 -0.285156 17.125 0.0195312 16.3125 0.25 C 15.5 0.476562 14.601562 0.59375 13.625 0.59375 C 12.03125 0.59375 10.539062 0.285156 9.15625 -0.328125 C 7.769531 -0.953125 6.5625 -1.832031 5.53125 -2.96875 C 4.507812 -4.113281 3.695312 -5.488281 3.09375 -7.09375 C 2.5 -8.707031 2.203125 -10.523438 2.203125 -12.546875 Z M 14.59375 -3.328125 C 15.832031 -3.328125 17.003906 -3.617188 18.109375 -4.203125 C 19.222656 -4.785156 20.15625 -5.550781 20.90625 -6.5 L 20.90625 -20.125 C 20.019531 -20.738281 19.046875 -21.234375 17.984375 -21.609375 C 16.929688 -21.984375 15.820312 -22.171875 14.65625 -22.171875 C 13.476562 -22.171875 12.398438 -21.941406 11.421875 -21.484375 C 10.453125 -21.023438 9.613281 -20.378906 8.90625 -19.546875 C 8.207031 -18.722656 7.660156 -17.722656 7.265625 -16.546875 C 6.878906 -15.378906 6.6875 -14.097656 6.6875 -12.703125 C 6.6875 -11.328125 6.878906 -10.0625 7.265625 -8.90625 C 7.660156 -7.75 8.21875 -6.753906 8.9375 -5.921875 C 9.65625 -5.097656 10.492188 -4.457031 11.453125 -4 C 12.410156 -3.550781 13.457031 -3.328125 14.59375 -3.328125 Z M 14.59375 -3.328125 "/></g></g></g><g fill="#000000" fill-opacity="1"><g transform="translate(197.324665, 75.374998)"><g><path d="M 17.671875 -21.140625 C 17.054688 -21.398438 16.328125 -21.53125 15.484375 -21.53125 C 14.566406 -21.53125 13.675781 -21.332031 12.8125 -20.9375 C 11.957031 -20.550781 11.191406 -19.96875 10.515625 -19.1875 C 9.847656 -18.40625 9.3125 -17.40625 8.90625 -16.1875 C 8.5 -14.96875 8.296875 -13.523438 8.296875 -11.859375 L 8.296875 0 L 3.90625 0 L 3.90625 -25.390625 L 8.15625 -25.390625 L 8.15625 -19.875 C 8.445312 -20.65625 8.835938 -21.421875 9.328125 -22.171875 C 9.816406 -22.921875 10.394531 -23.570312 11.0625 -24.125 C 11.726562 -24.675781 12.5 -25.125 13.375 -25.46875 C 14.257812 -25.8125 15.238281 -25.984375 16.3125 -25.984375 C 16.800781 -25.984375 17.28125 -25.957031 17.75 -25.90625 C 18.21875 -25.851562 18.632812 -25.78125 19 -25.6875 Z M 17.671875 -21.140625 "/></g></g></g><g fill="#000000" fill-opacity="1"><g transform="translate(217.780474, 75.374998)"><g><path d="M 5.90625 -32.46875 L 9.28125 -32.46875 L 9.28125 -24.46875 L 16.3125 -24.46875 L 16.3125 -20.65625 L 9.28125 -20.65625 L 9.28125 -8.40625 C 9.28125 -7.457031 9.382812 -6.65625 9.59375 -6 C 9.800781 -5.351562 10.082031 -4.832031 10.4375 -4.4375 C 10.800781 -4.050781 11.234375 -3.769531 11.734375 -3.59375 C 12.242188 -3.414062 12.773438 -3.328125 13.328125 -3.328125 C 14.140625 -3.328125 14.90625 -3.457031 15.625 -3.71875 C 16.34375 -3.976562 17.023438 -4.285156 17.671875 -4.640625 L 18.890625 -1.125 C 18.242188 -0.726562 17.363281 -0.34375 16.25 0.03125 C 15.144531 0.40625 13.992188 0.59375 12.796875 0.59375 C 10.347656 0.59375 8.414062 -0.203125 7 -1.796875 C 5.59375 -3.398438 4.890625 -5.710938 4.890625 -8.734375 L 4.890625 -20.65625 L 0.484375 -20.65625 L 0.484375 -24.46875 L 4.984375 -24.46875 Z M 5.90625 -32.46875 "/></g></g></g><g fill="#000000" fill-opacity="1"><g transform="translate(237.162141, 75.374998)"><g><path d="M 8.15625 -21.140625 C 9.0625 -22.503906 10.222656 -23.648438 11.640625 -24.578125 C 13.054688 -25.515625 14.742188 -25.984375 16.703125 -25.984375 C 19.566406 -25.984375 21.707031 -25.117188 23.125 -23.390625 C 24.539062 -21.660156 25.25 -19.378906 25.25 -16.546875 L 25.25 0 L 20.84375 0 L 20.84375 -16.0625 C 20.84375 -17.914062 20.421875 -19.390625 19.578125 -20.484375 C 18.734375 -21.578125 17.53125 -22.125 15.96875 -22.125 C 15.21875 -22.125 14.484375 -21.984375 13.765625 -21.703125 C 13.054688 -21.429688 12.363281 -21.050781 11.6875 -20.5625 C 11.019531 -20.070312 10.398438 -19.5 9.828125 -18.84375 C 9.265625 -18.195312 8.753906 -17.515625 8.296875 -16.796875 L 8.296875 0 L 3.90625 0 L 3.90625 -25.390625 L 8.15625 -25.390625 Z M 8.15625 -21.140625 "/></g></g></g><g fill="#000000" fill-opacity="1"><g transform="translate(266.06377, 75.374998)"><g><path d="M 6.6875 -10.890625 C 6.976562 -8.515625 7.804688 -6.660156 9.171875 -5.328125 C 10.546875 -3.992188 12.351562 -3.328125 14.59375 -3.328125 C 16.0625 -3.328125 17.378906 -3.476562 18.546875 -3.78125 C 19.722656 -4.09375 20.847656 -4.492188 21.921875 -4.984375 L 22.953125 -1.21875 C 21.773438 -0.664062 20.453125 -0.226562 18.984375 0.09375 C 17.523438 0.425781 15.882812 0.59375 14.0625 0.59375 C 12.238281 0.59375 10.59375 0.289062 9.125 -0.3125 C 7.664062 -0.914062 6.421875 -1.78125 5.390625 -2.90625 C 4.367188 -4.03125 3.582031 -5.410156 3.03125 -7.046875 C 2.476562 -8.691406 2.203125 -10.578125 2.203125 -12.703125 C 2.203125 -14.585938 2.476562 -16.34375 3.03125 -17.96875 C 3.582031 -19.59375 4.363281 -21 5.375 -22.1875 C 6.382812 -23.375 7.585938 -24.300781 8.984375 -24.96875 C 10.378906 -25.644531 11.941406 -25.984375 13.671875 -25.984375 C 15.492188 -25.984375 17.085938 -25.671875 18.453125 -25.046875 C 19.828125 -24.429688 20.96875 -23.585938 21.875 -22.515625 C 22.789062 -21.441406 23.472656 -20.1875 23.921875 -18.75 C 24.378906 -17.320312 24.609375 -15.804688 24.609375 -14.203125 C 24.609375 -13.066406 24.5625 -11.960938 24.46875 -10.890625 Z M 13.578125 -22.171875 C 11.648438 -22.171875 10.078125 -21.519531 8.859375 -20.21875 C 7.640625 -18.914062 6.898438 -16.992188 6.640625 -14.453125 L 20.5625 -14.453125 C 20.5625 -16.929688 19.941406 -18.835938 18.703125 -20.171875 C 17.460938 -21.503906 15.753906 -22.171875 13.578125 -22.171875 Z M 13.578125 -22.171875 "/></g></g></g><g fill="#000000" fill-opacity="1"><g transform="translate(292.622027, 75.374998)"><g><path d="M 17.671875 -21.140625 C 17.054688 -21.398438 16.328125 -21.53125 15.484375 -21.53125 C 14.566406 -21.53125 13.675781 -21.332031 12.8125 -20.9375 C 11.957031 -20.550781 11.191406 -19.96875 10.515625 -19.1875 C 9.847656 -18.40625 9.3125 -17.40625 8.90625 -16.1875 C 8.5 -14.96875 8.296875 -13.523438 8.296875 -11.859375 L 8.296875 0 L 3.90625 0 L 3.90625 -25.390625 L 8.15625 -25.390625 L 8.15625 -19.875 C 8.445312 -20.65625 8.835938 -21.421875 9.328125 -22.171875 C 9.816406 -22.921875 10.394531 -23.570312 11.0625 -24.125 C 11.726562 -24.675781 12.5 -25.125 13.375 -25.46875 C 14.257812 -25.8125 15.238281 -25.984375 16.3125 -25.984375 C 16.800781 -25.984375 17.28125 -25.957031 17.75 -25.90625 C 18.21875 -25.851562 18.632812 -25.78125 19 -25.6875 Z M 17.671875 -21.140625 "/></g></g></g></g></g></g></g></g></mask><clipPath id="39d12c81bd"><path d="M 0 0 L 375 0 L 375 120 L 0 120 Z M 0 0 " clip-rule="nonzero"/></clipPath><clipPath id="52119b7f07"><rect x="0" width="375" y="0" height="120"/></clipPath><clipPath id="d6639ab791"><rect x="0" width="375" y="0" height="120"/></clipPath><clipPath id="a2daa96ea0"><path d="M 224.039062 0 L 375 0 L 375 120 L 224.039062 120 Z M 224.039062 0 " clip-rule="nonzero"/></clipPath><linearGradient x1="280.24602" gradientTransform="matrix(0.749462, 0, 0, 0.74908, 14.005256, 25.916873)" y1="45.5" x2="481.671698" gradientUnits="userSpaceOnUse" y2="45.5" id="379a4c1e94"><stop stop-opacity="1" stop-color="rgb(0%, 0%, 0%)" offset="0"/><stop stop-opacity="1" stop-color="rgb(0%, 0%, 0%)" offset="0.5"/><stop stop-opacity="1" stop-color="rgb(0%, 0%, 0%)" offset="0.625"/><stop stop-opacity="1" stop-color="rgb(0%, 0%, 0%)" offset="0.640625"/><stop stop-opacity="1" stop-color="rgb(0.0762939%, 0.0732422%, 0.296021%)" offset="0.644531"/><stop stop-opacity="1" stop-color="rgb(0.152588%, 0.146484%, 0.593567%)" offset="0.648438"/><stop stop-opacity="1" stop-color="rgb(0.450134%, 0.43335%, 1.747131%)" offset="0.652344"/><stop stop-opacity="1" stop-color="rgb(0.749207%, 0.721741%, 2.900696%)" offset="0.65625"/><stop stop-opacity="1" stop-color="rgb(1.046753%, 1.008606%, 4.05426%)" offset="0.660156"/><stop stop-opacity="1" stop-color="rgb(1.345825%, 1.295471%, 5.209351%)" offset="0.664063"/><stop stop-opacity="1" stop-color="rgb(1.643372%, 1.582336%, 6.362915%)" offset="0.667969"/><stop stop-opacity="1" stop-color="rgb(1.942444%, 1.869202%, 7.516479%)" offset="0.671875"/><stop stop-opacity="1" stop-color="rgb(2.23999%, 2.156067%, 8.670044%)" offset="0.675781"/><stop stop-opacity="1" stop-color="rgb(2.539062%, 2.444458%, 9.825134%)" offset="0.679688"/><stop stop-opacity="1" stop-color="rgb(2.836609%, 2.731323%, 10.978699%)" offset="0.683594"/><stop stop-opacity="1" stop-color="rgb(3.135681%, 3.018188%, 12.132263%)" offset="0.6875"/><stop stop-opacity="1" stop-color="rgb(3.433228%, 3.305054%, 13.285828%)" offset="0.691406"/><stop stop-opacity="1" stop-color="rgb(3.7323%, 3.591919%, 14.440918%)" offset="0.695312"/><stop stop-opacity="1" stop-color="rgb(4.029846%, 3.878784%, 15.594482%)" offset="0.699219"/><stop stop-opacity="1" stop-color="rgb(4.328918%, 4.165649%, 16.748047%)" offset="0.703125"/><stop stop-opacity="1" stop-color="rgb(4.626465%, 4.452515%, 17.901611%)" offset="0.707031"/><stop stop-opacity="1" stop-color="rgb(4.925537%, 4.740906%, 19.056702%)" offset="0.710938"/><stop stop-opacity="1" stop-color="rgb(5.223083%, 5.027771%, 20.210266%)" offset="0.714844"/><stop stop-opacity="1" stop-color="rgb(5.522156%, 5.314636%, 21.365356%)" offset="0.71875"/><stop stop-opacity="1" stop-color="rgb(5.819702%, 5.601501%, 22.518921%)" offset="0.722656"/><stop stop-opacity="1" stop-color="rgb(6.118774%, 5.888367%, 23.672485%)" offset="0.726562"/><stop stop-opacity="1" stop-color="rgb(6.416321%, 6.175232%, 24.82605%)" offset="0.730469"/><stop stop-opacity="1" stop-color="rgb(6.715393%, 6.463623%, 25.98114%)" offset="0.734375"/><stop stop-opacity="1" stop-color="rgb(7.012939%, 6.750488%, 27.134705%)" offset="0.738281"/><stop stop-opacity="1" stop-color="rgb(7.312012%, 7.037354%, 28.288269%)" offset="0.742188"/><stop stop-opacity="1" stop-color="rgb(7.609558%, 7.324219%, 29.441833%)" offset="0.746094"/><stop stop-opacity="1" stop-color="rgb(7.90863%, 7.611084%, 30.596924%)" offset="0.75"/><stop stop-opacity="1" stop-color="rgb(8.206177%, 7.897949%, 31.750488%)" offset="0.753906"/><stop stop-opacity="1" stop-color="rgb(8.505249%, 8.18634%, 32.904053%)" offset="0.757813"/><stop stop-opacity="1" stop-color="rgb(8.802795%, 8.473206%, 34.057617%)" offset="0.761719"/><stop stop-opacity="1" stop-color="rgb(9.101868%, 8.760071%, 35.212708%)" offset="0.765625"/><stop stop-opacity="1" stop-color="rgb(9.399414%, 9.046936%, 36.366272%)" offset="0.769531"/><stop stop-opacity="1" stop-color="rgb(9.698486%, 9.333801%, 37.519836%)" offset="0.773438"/><stop stop-opacity="1" stop-color="rgb(9.996033%, 9.620667%, 38.673401%)" offset="0.777344"/><stop stop-opacity="1" stop-color="rgb(10.295105%, 9.907532%, 39.828491%)" offset="0.78125"/><stop stop-opacity="1" stop-color="rgb(10.592651%, 10.194397%, 40.982056%)" offset="0.785156"/><stop stop-opacity="1" stop-color="rgb(10.891724%, 10.482788%, 42.13562%)" offset="0.789063"/><stop stop-opacity="1" stop-color="rgb(11.18927%, 10.769653%, 43.289185%)" offset="0.792969"/><stop stop-opacity="1" stop-color="rgb(11.488342%, 11.056519%, 44.444275%)" offset="0.796875"/><stop stop-opacity="1" stop-color="rgb(11.785889%, 11.343384%, 45.597839%)" offset="0.800781"/><stop stop-opacity="1" stop-color="rgb(12.084961%, 11.630249%, 46.751404%)" offset="0.804688"/><stop stop-opacity="1" stop-color="rgb(12.382507%, 11.917114%, 47.904968%)" offset="0.808594"/><stop stop-opacity="1" stop-color="rgb(12.68158%, 12.205505%, 49.060059%)" offset="0.8125"/><stop stop-opacity="1" stop-color="rgb(12.979126%, 12.492371%, 50.213623%)" offset="0.816406"/><stop stop-opacity="1" stop-color="rgb(13.278198%, 12.779236%, 51.367188%)" offset="0.820312"/><stop stop-opacity="1" stop-color="rgb(13.575745%, 13.066101%, 52.520752%)" offset="0.824219"/><stop stop-opacity="1" stop-color="rgb(13.873291%, 13.352966%, 53.675842%)" offset="0.828125"/><stop stop-opacity="1" stop-color="rgb(14.170837%, 13.639832%, 54.829407%)" offset="0.832031"/><stop stop-opacity="1" stop-color="rgb(14.46991%, 13.926697%, 55.982971%)" offset="0.835938"/><stop stop-opacity="1" stop-color="rgb(14.767456%, 14.213562%, 57.136536%)" offset="0.839844"/><stop stop-opacity="1" stop-color="rgb(15.066528%, 14.501953%, 58.291626%)" offset="0.84375"/><stop stop-opacity="1" stop-color="rgb(15.364075%, 14.788818%, 59.44519%)" offset="0.847656"/><stop stop-opacity="1" stop-color="rgb(15.663147%, 15.075684%, 60.598755%)" offset="0.851563"/><stop stop-opacity="1" stop-color="rgb(15.960693%, 15.362549%, 61.752319%)" offset="0.855469"/><stop stop-opacity="1" stop-color="rgb(16.259766%, 15.649414%, 62.90741%)" offset="0.859375"/><stop stop-opacity="1" stop-color="rgb(16.557312%, 15.936279%, 64.060974%)" offset="0.863281"/><stop stop-opacity="1" stop-color="rgb(16.856384%, 16.22467%, 65.216064%)" offset="0.867188"/><stop stop-opacity="1" stop-color="rgb(17.153931%, 16.511536%, 66.369629%)" offset="0.871094"/><stop stop-opacity="1" stop-color="rgb(17.453003%, 16.798401%, 67.523193%)" offset="0.875"/><stop stop-opacity="1" stop-color="rgb(17.750549%, 17.085266%, 68.676758%)" offset="0.878906"/><stop stop-opacity="1" stop-color="rgb(18.049622%, 17.372131%, 69.831848%)" offset="0.882812"/><stop stop-opacity="1" stop-color="rgb(18.347168%, 17.658997%, 70.985413%)" offset="0.886719"/><stop stop-opacity="1" stop-color="rgb(18.64624%, 17.947388%, 72.138977%)" offset="0.890625"/><stop stop-opacity="1" stop-color="rgb(18.943787%, 18.234253%, 73.292542%)" offset="0.894531"/><stop stop-opacity="1" stop-color="rgb(19.242859%, 18.521118%, 74.447632%)" offset="0.898438"/><stop stop-opacity="1" stop-color="rgb(19.540405%, 18.807983%, 75.601196%)" offset="0.902344"/><stop stop-opacity="1" stop-color="rgb(19.839478%, 19.094849%, 76.754761%)" offset="0.90625"/><stop stop-opacity="1" stop-color="rgb(20.137024%, 19.381714%, 77.908325%)" offset="0.910156"/><stop stop-opacity="1" stop-color="rgb(20.436096%, 19.668579%, 79.063416%)" offset="0.914063"/><stop stop-opacity="1" stop-color="rgb(20.606995%, 19.833374%, 79.725647%)" offset="0.917969"/><stop stop-opacity="1" stop-color="rgb(20.779419%, 19.999695%, 80.389404%)" offset="0.921875"/><stop stop-opacity="1" stop-color="rgb(20.779419%, 19.999695%, 80.389404%)" offset="0.9375"/><stop stop-opacity="1" stop-color="rgb(20.779419%, 19.999695%, 80.389404%)" offset="1"/></linearGradient><clipPath id="c694a4fce2"><rect x="0" width="375" y="0" height="120"/></clipPath><clipPath id="7460412cd9"><rect x="0" width="375" y="0" height="120"/></clipPath><clipPath id="d8a6a4c217"><rect x="0" width="375" y="0" height="120"/></clipPath><mask id="55b21e2432"><g filter="url(#be05273ef3)"><g transform="matrix(1, 0, 0, 1, 0, 0.000000000000001943)"><g clip-path="url(#d8a6a4c217)"><g transform="matrix(1, 0, 0, 1, 0, 0.000000000000001943)"><g clip-path="url(#7460412cd9)"><g fill="#000000" fill-opacity="1"><g transform="translate(321.878895, 75.374998)"><g><path d="M 8.296875 0 L 3.90625 0 L 3.90625 -25.390625 L 8.296875 -25.390625 Z M 6.109375 -29.734375 C 5.253906 -29.734375 4.523438 -30.035156 3.921875 -30.640625 C 3.328125 -31.242188 3.03125 -31.96875 3.03125 -32.8125 C 3.03125 -33.757812 3.304688 -34.507812 3.859375 -35.0625 C 4.410156 -35.613281 5.160156 -35.890625 6.109375 -35.890625 C 6.953125 -35.890625 7.675781 -35.585938 8.28125 -34.984375 C 8.882812 -34.378906 9.1875 -33.65625 9.1875 -32.8125 C 9.1875 -31.863281 8.90625 -31.113281 8.34375 -30.5625 C 7.789062 -30.007812 7.046875 -29.734375 6.109375 -29.734375 Z M 6.109375 -29.734375 "/></g></g></g><g fill="#000000" fill-opacity="1"><g transform="translate(334.083972, 75.374998)"><g><path d="M 8.15625 -21.140625 C 9.0625 -22.503906 10.222656 -23.648438 11.640625 -24.578125 C 13.054688 -25.515625 14.742188 -25.984375 16.703125 -25.984375 C 19.566406 -25.984375 21.707031 -25.117188 23.125 -23.390625 C 24.539062 -21.660156 25.25 -19.378906 25.25 -16.546875 L 25.25 0 L 20.84375 0 L 20.84375 -16.0625 C 20.84375 -17.914062 20.421875 -19.390625 19.578125 -20.484375 C 18.734375 -21.578125 17.53125 -22.125 15.96875 -22.125 C 15.21875 -22.125 14.484375 -21.984375 13.765625 -21.703125 C 13.054688 -21.429688 12.363281 -21.050781 11.6875 -20.5625 C 11.019531 -20.070312 10.398438 -19.5 9.828125 -18.84375 C 9.265625 -18.195312 8.753906 -17.515625 8.296875 -16.796875 L 8.296875 0 L 3.90625 0 L 3.90625 -25.390625 L 8.15625 -25.390625 Z M 8.15625 -21.140625 "/></g></g></g></g></g></g></g></g></mask><clipPath id="3640be1f78"><path d="M 224.039062 0 L 375 0 L 375 120 L 224.039062 120 Z M 224.039062 0 " clip-rule="nonzero"/></clipPath><clipPath id="27aab983d8"><rect x="0" width="375" y="0" height="120"/></clipPath><clipPath id="857b17d7b1"><rect x="0" width="375" y="0" height="120"/></clipPath><clipPath id="a865b9c880"><path d="M 119 82 L 268 82 L 268 96.648438 L 119 96.648438 Z M 119 82 " clip-rule="nonzero"/></clipPath></defs><rect x="-37.5" width="450" fill="#ffffff" y="-12" height="143.999998" fill-opacity="1"/><rect x="-37.5" width="450" fill="#ffffff" y="-12" height="143.999998" fill-opacity="1"/><g fill="#eb2427" fill-opacity="1"><g transform="translate(307.230458, 75.374998)"><g><path d="M 4.046875 -2.6875 C 4.046875 -3.695312 4.332031 -4.492188 4.90625 -5.078125 C 5.476562 -5.660156 6.285156 -5.953125 7.328125 -5.953125 C 8.171875 -5.953125 8.925781 -5.625 9.59375 -4.96875 C 10.257812 -4.320312 10.59375 -3.5625 10.59375 -2.6875 C 10.59375 -1.707031 10.28125 -0.914062 9.65625 -0.3125 C 9.039062 0.289062 8.265625 0.59375 7.328125 0.59375 C 6.441406 0.59375 5.671875 0.261719 5.015625 -0.390625 C 4.367188 -1.046875 4.046875 -1.8125 4.046875 -2.6875 Z M 4.046875 -2.6875 "/></g></g></g><g transform="matrix(1, 0, 0, 1, 0, 0.000000000000001943)"><g clip-path="url(#d6639ab791)"><g mask="url(#4a86f72362)"><g transform="matrix(1, 0, 0, 1, 0, 0.000000000000001943)"><g clip-path="url(#52119b7f07)"><g clip-path="url(#39d12c81bd)"><rect x="-136.5" fill="url(#16dbe1f528)" width="648" y="-43.679999" height="207.359997"/></g></g></g></g></g></g><g transform="matrix(1, 0, 0, 1, 0, 0.000000000000001943)"><g clip-path="url(#857b17d7b1)"><g mask="url(#55b21e2432)"><g transform="matrix(1, 0, 0, 1, 0, 0.000000000000001943)"><g clip-path="url(#27aab983d8)"><g clip-path="url(#3640be1f78)"><path fill="url(#379a4c1e94)" d="M 224.039062 0 L 224.039062 120 L 375 120 L 375 0 Z M 224.039062 0 " fill-rule="nonzero"/></g></g></g></g></g></g><g clip-path="url(#a865b9c880)"><path fill="#eb2427" d="M 266.871094 93.925781 C 261.417969 93.25 255.992188 92.027344 250.570312 91.078125 C 245.421875 90.1875 240.246094 89.425781 235.070312 88.75 C 216.101562 86.300781 196.886719 85.566406 177.761719 86.117188 C 168.464844 86.394531 159.132812 87.003906 149.867188 87.953125 C 145.339844 88.414062 140.816406 88.964844 136.320312 89.578125 C 131.363281 90.25 126.433594 91.167969 121.476562 91.6875 C 119.367188 91.902344 118.964844 88.566406 120.949219 88.109375 C 126.371094 86.820312 131.949219 86.027344 137.5 85.292969 C 142.582031 84.617188 147.695312 84.035156 152.8125 83.578125 C 171.5625 81.894531 190.59375 81.648438 209.34375 83.117188 C 219.046875 83.882812 228.71875 84.925781 238.324219 86.332031 C 247.964844 87.769531 257.789062 89.332031 267.152344 92.117188 C 268.082031 92.425781 267.925781 94.046875 266.871094 93.925781 Z M 227.351562 90.953125 C 208.011719 87.710938 188.269531 88.230469 168.898438 90.953125 C 163.257812 91.75 157.582031 92.636719 152.066406 94.136719 C 150.546875 94.566406 151.230469 96.648438 152.71875 96.433594 C 157.554688 95.730469 162.355469 94.660156 167.191406 93.953125 C 171.902344 93.25 176.613281 92.699219 181.355469 92.300781 C 190.78125 91.503906 200.171875 91.414062 209.625 91.566406 C 215.511719 91.660156 221.402344 91.964844 227.292969 92.300781 C 228.066406 92.300781 228.097656 91.078125 227.351562 90.953125 Z M 227.351562 90.953125 " fill-opacity="1" fill-rule="nonzero"/></g><g fill="#1800ad" fill-opacity="1"><g transform="translate(319.284302, 45.857012)"><g><path d="M 4.625 -3.0625 C 4.625 -4.21875 4.945312 -5.128906 5.59375 -5.796875 C 6.25 -6.472656 7.175781 -6.8125 8.375 -6.8125 C 9.332031 -6.8125 10.191406 -6.4375 10.953125 -5.6875 C 11.722656 -4.945312 12.109375 -4.070312 12.109375 -3.0625 C 12.109375 -1.945312 11.753906 -1.046875 11.046875 -0.359375 C 10.335938 0.324219 9.445312 0.671875 8.375 0.671875 C 7.363281 0.671875 6.484375 0.300781 5.734375 -0.4375 C 4.992188 -1.1875 4.625 -2.0625 4.625 -3.0625 Z M 4.625 -3.0625 "/></g></g></g></svg>